<?xml version="1.0" standalone="no"?>
<!DOCTYPE svg PUBLIC "-//W3C//DTD SVG 20010904//EN"
 "http://www.w3.org/TR/2001/REC-SVG-20010904/DTD/svg10.dtd">
<svg version="1.0" xmlns="http://www.w3.org/2000/svg"
 width="420.000000pt" height="320.000000pt" viewBox="0 0 420.000000 320.000000"
 preserveAspectRatio="xMidYMid meet">

<g transform="translate(0.000000,320.000000) scale(0.100000,-0.100000)"
fill="#000000" stroke="none">
<path d="M3065 2859 c-144 -48 -278 -76 -402 -85 -84 -6 -93 -9 -93 -27 0 -19
4 -20 113 -14 111 7 237 33 390 81 63 19 77 21 73 9 -12 -31 -45 -171 -55
-238 -18 -112 -30 -328 -18 -342 11 -16 44 -17 49 -3 10 31 291 37 400 8 l48
-13 -96 -110 c-142 -162 -264 -327 -264 -357 0 -7 19 -18 43 -25 43 -11 181
-50 206 -59 18 -6 -25 -52 -122 -131 -65 -53 -77 -75 -46 -81 34 -6 246 202
236 232 -2 6 -51 23 -108 38 -57 15 -114 32 -127 38 l-23 10 42 62 c49 74 204
260 279 336 30 30 50 59 47 67 -11 27 -152 50 -312 50 -82 0 -165 -3 -184 -7
l-33 -8 7 98 c13 184 57 416 89 467 14 22 10 46 -7 44 -7 -1 -66 -19 -132 -40z"/>
<path d="M876 2782 c-12 -20 -26 -230 -25 -371 1 -178 10 -163 -110 -180 -78
-10 -159 3 -206 33 -28 19 -55 15 -55 -7 0 -16 65 -168 111 -258 44 -88 143
-245 190 -301 l39 -46 -68 -8 c-42 -4 -103 -2 -162 6 -132 18 -164 18 -168 0
-2 -10 16 -25 50 -41 61 -30 168 -109 318 -232 106 -88 130 -101 130 -69 0 15
-226 208 -316 270 -19 12 -34 24 -34 25 0 1 68 2 151 3 125 1 153 3 166 17 16
16 14 19 -25 53 -60 51 -174 227 -253 389 -37 77 -67 141 -65 142 1 1 24 -4
51 -12 62 -19 110 -18 215 3 l85 18 0 204 c1 113 5 230 9 261 l8 56 133 -68
c154 -78 269 -119 286 -102 18 18 3 30 -69 54 -37 12 -133 55 -213 95 -148 75
-164 81 -173 66z"/>
<path d="M2155 2286 c-27 -13 -65 -39 -84 -59 l-33 -35 -46 29 c-81 51 -138
48 -222 -12 -39 -29 -43 -29 -60 -14 -37 33 -93 31 -174 -8 -132 -63 -236
-183 -271 -311 -25 -91 -17 -209 19 -295 l27 -64 -20 -48 c-66 -153 31 -322
224 -390 142 -50 172 -85 253 -300 22 -57 56 -167 76 -244 79 -296 98 -344
129 -332 13 5 12 14 -9 71 -13 36 -33 102 -44 148 -63 248 -133 455 -185 545
-35 58 -108 119 -168 139 -204 66 -297 202 -237 342 45 104 228 242 323 242
31 0 46 -7 73 -34 31 -31 34 -39 34 -96 0 -39 -9 -89 -25 -136 -30 -88 -31
-107 -8 -102 22 4 60 99 75 188 11 64 10 74 -9 121 -18 42 -19 50 -6 47 9 -2
22 -26 32 -58 37 -118 103 -220 143 -220 51 0 109 55 146 138 l19 43 31 -55
c36 -63 64 -86 108 -86 65 0 146 86 186 197 30 83 38 315 14 413 -21 84 -13
105 44 120 61 17 116 -2 170 -59 65 -66 89 -124 102 -244 25 -228 -57 -467
-188 -547 -115 -71 -109 -60 -108 -212 1 -92 13 -211 38 -388 58 -409 68 -452
97 -423 8 8 4 55 -15 169 -28 173 -71 503 -82 625 -10 118 -4 130 79 183 79
48 100 72 145 162 53 105 74 188 79 319 6 137 -10 226 -54 308 -49 90 -145
157 -225 157 -32 0 -88 -19 -108 -36 -13 -11 -21 -7 -50 34 -38 52 -106 92
-155 92 -16 0 -52 -11 -80 -24z m166 -55 c180 -149 146 -699 -47 -747 -33 -8
-46 5 -93 92 -39 72 -40 75 -31 131 23 137 7 281 -41 377 -16 33 -29 67 -29
76 0 20 56 75 90 89 14 5 45 10 70 10 36 1 53 -5 81 -28z m-342 -51 c95 -69
135 -176 133 -355 -1 -186 -45 -324 -117 -371 -24 -16 -27 -16 -47 2 -25 23
-67 113 -98 209 -17 54 -23 98 -24 195 -2 109 -6 134 -30 198 -16 42 -24 81
-21 92 9 28 72 59 121 60 30 0 52 -8 83 -30z m-276 -38 c60 -63 93 -213 77
-339 -16 -118 -16 -117 -51 -91 -72 54 -211 5 -340 -119 l-46 -44 -24 63 c-19
51 -24 81 -23 154 1 80 4 99 32 157 51 109 163 212 264 241 53 16 80 10 111
-22z"/>
<path d="M3032 878 c-7 -7 -12 -38 -12 -70 0 -37 -17 -128 -45 -240 -32 -127
-43 -184 -35 -192 20 -20 37 20 78 184 53 213 59 363 14 318z"/>
<path d="M1170 764 c-13 -34 -13 -51 5 -169 19 -127 64 -313 77 -321 5 -3 15
-1 21 5 7 7 1 51 -23 153 -21 93 -34 177 -36 241 -2 54 -6 103 -9 108 -11 16
-25 10 -35 -17z"/>
<path d="M3150 698 c-7 -24 -25 -74 -41 -112 -34 -80 -36 -96 -11 -96 14 0 28
23 56 93 43 106 49 149 24 155 -13 2 -20 -8 -28 -40z"/>
<path d="M1024 575 c-18 -46 28 -227 59 -233 23 -5 22 16 -3 103 -11 39 -19
86 -18 105 2 26 -1 35 -15 38 -9 2 -20 -4 -23 -13z"/>
</g>
</svg>
